<?xml version="1.0" encoding="UTF-8"?>
<svg xmlns="http://www.w3.org/2000/svg" xmlns:xlink="http://www.w3.org/1999/xlink" width="24px" height="24px" viewBox="0 0 24 24" version="1.1">
<g id="surface1">
<path style=" stroke:none;fill-rule:nonzero;fill:rgb(255,255,255);fill-opacity:1;" d="M 21 11 L 17.5 11 L 17.5 3 C 17.5 2.449219 17.050781 2 16.5 2 L 7.5 2 C 6.949219 2 6.5 2.449219 6.5 3 L 6.5 11 L 3 11 C 2.449219 11 2 11.449219 2 12 L 2 21 C 2 21.550781 2.449219 22 3 22 L 21 22 C 21.550781 22 22 21.550781 22 21 L 22 12 C 22 11.449219 21.550781 11 21 11 Z M 11 20 L 4 20 L 4 13 L 11 13 Z M 8.5 11 L 8.5 4 L 15.5 4 L 15.5 11 Z M 20 20 L 13 20 L 13 13 L 20 13 Z M 20 20 "/>
</g>
</svg>
