<?xml version="1.0" encoding="UTF-8"?>
<svg xmlns="http://www.w3.org/2000/svg" xmlns:xlink="http://www.w3.org/1999/xlink" width="24px" height="24px" viewBox="0 0 24 24" version="1.1">
<g id="surface1">
<path style="fill:none;stroke-width:2;stroke-linecap:round;stroke-linejoin:round;stroke:rgb(0%,0%,0%);stroke-opacity:1;stroke-miterlimit:4;" d="M 6.300781 5 L 21 5 L 19 12 L 7.375 12 M 20 16 L 8 16 L 6 3 L 3 3 M 9 20 C 9 20.550781 8.550781 21 8 21 C 7.449219 21 7 20.550781 7 20 C 7 19.449219 7.449219 19 8 19 C 8.550781 19 9 19.449219 9 20 Z M 20 20 C 20 20.550781 19.550781 21 19 21 C 18.449219 21 18 20.550781 18 20 C 18 19.449219 18.449219 19 19 19 C 19.550781 19 20 19.449219 20 20 Z M 20 20 "/>
</g>
</svg>
