<?xml version="1.0" encoding="UTF-8"?>
<svg xmlns="http://www.w3.org/2000/svg" xmlns:xlink="http://www.w3.org/1999/xlink" width="24px" height="24px" viewBox="0 0 24 24" version="1.1">
<g id="surface1">
<path style="fill:none;stroke-width:1.92;stroke-linecap:butt;stroke-linejoin:miter;stroke:white;stroke-opacity:1;stroke-miterlimit:10;" d="M 5.558594 3.378906 L 18.449219 3.378906 C 19.652344 3.378906 20.628906 4.355469 20.628906 5.558594 L 20.628906 18.449219 C 20.628906 19.652344 19.652344 20.628906 18.449219 20.628906 L 5.558594 20.628906 C 4.355469 20.628906 3.378906 19.652344 3.378906 18.449219 L 3.378906 5.558594 C 3.378906 4.355469 4.355469 3.378906 5.558594 3.378906 Z M 5.558594 3.378906 "/>
<path style="fill:none;stroke-width:1.92;stroke-linecap:butt;stroke-linejoin:miter;stroke:white;stroke-opacity:1;stroke-miterlimit:10;" d="M 9.128906 7.210938 L 14.871094 7.210938 C 15.929688 7.210938 16.789062 8.070312 16.789062 9.128906 L 16.789062 14.871094 C 16.789062 15.929688 15.929688 16.789062 14.871094 16.789062 L 9.128906 16.789062 C 8.070312 16.789062 7.210938 15.929688 7.210938 14.871094 L 7.210938 9.128906 C 7.210938 8.070312 8.070312 7.210938 9.128906 7.210938 Z M 9.128906 7.210938 "/>
<path style="fill:none;stroke-width:1.92;stroke-linecap:butt;stroke-linejoin:miter;stroke:white;stroke-opacity:1;stroke-miterlimit:10;" d="M 7.210938 0.5 L 7.210938 2.421875 "/>
<path style="fill:none;stroke-width:1.92;stroke-linecap:butt;stroke-linejoin:miter;stroke:white;stroke-opacity:1;stroke-miterlimit:10;" d="M 12 0.5 L 12 2.421875 "/>
<path style="fill:none;stroke-width:1.92;stroke-linecap:butt;stroke-linejoin:miter;stroke:white;stroke-opacity:1;stroke-miterlimit:10;" d="M 16.789062 0.5 L 16.789062 2.421875 "/>
<path style="fill:none;stroke-width:1.92;stroke-linecap:butt;stroke-linejoin:miter;stroke:white;stroke-opacity:1;stroke-miterlimit:10;" d="M 7.210938 21.578125 L 7.210938 23.5 "/>
<path style="fill:none;stroke-width:1.92;stroke-linecap:butt;stroke-linejoin:miter;stroke:white;stroke-opacity:1;stroke-miterlimit:10;" d="M 12 21.578125 L 12 23.5 "/>
<path style="fill:none;stroke-width:1.92;stroke-linecap:butt;stroke-linejoin:miter;stroke:white;stroke-opacity:1;stroke-miterlimit:10;" d="M 16.789062 21.578125 L 16.789062 23.5 "/>
<path style="fill:none;stroke-width:1.92;stroke-linecap:butt;stroke-linejoin:miter;stroke:white;stroke-opacity:1;stroke-miterlimit:10;" d="M 0.5 16.789062 L 2.421875 16.789062 "/>
<path style="fill:none;stroke-width:1.92;stroke-linecap:butt;stroke-linejoin:miter;stroke:white;stroke-opacity:1;stroke-miterlimit:10;" d="M 0.5 12 L 2.421875 12 "/>
<path style="fill:none;stroke-width:1.92;stroke-linecap:butt;stroke-linejoin:miter;stroke:white;stroke-opacity:1;stroke-miterlimit:10;" d="M 0.5 7.210938 L 2.421875 7.210938 "/>
<path style="fill:none;stroke-width:1.92;stroke-linecap:butt;stroke-linejoin:miter;stroke:white;stroke-opacity:1;stroke-miterlimit:10;" d="M 21.578125 16.789062 L 23.5 16.789062 "/>
<path style="fill:none;stroke-width:1.92;stroke-linecap:butt;stroke-linejoin:miter;stroke:white;stroke-opacity:1;stroke-miterlimit:10;" d="M 21.578125 12 L 23.5 12 "/>
<path style="fill:none;stroke-width:1.92;stroke-linecap:butt;stroke-linejoin:miter;stroke:white;stroke-opacity:1;stroke-miterlimit:10;" d="M 21.578125 7.210938 L 23.5 7.210938 "/>
</g>
</svg>
