<?xml version="1.0" encoding="UTF-8"?>
<svg xmlns="http://www.w3.org/2000/svg" xmlns:xlink="http://www.w3.org/1999/xlink" width="24px" height="px" viewBox="0 0 24 24" version="1.1">
<g id="surface1">
<path style=" stroke:none;fill-rule:evenodd;fill:rgb(0%,0%,0%);fill-opacity:1;" d="M 5 5 C 5 4.449219 5.449219 4 6 4 L 18 4 C 18.550781 4 19 4.449219 19 5 L 19 11 C 20.65625 11 22 12.34375 22 14 L 22 18 C 22 19.65625 20.65625 21 19 21 L 5 21 C 3.34375 21 2 19.65625 2 18 L 2 14 C 2 12.34375 3.34375 11 5 11 Z M 5 13 C 4.449219 13 4 13.449219 4 14 L 4 18 C 4 18.550781 4.449219 19 5 19 L 19 19 C 19.550781 19 20 18.550781 20 18 L 20 14 C 20 13.449219 19.550781 13 19 13 L 19 15 C 19 15.550781 18.550781 16 18 16 L 6 16 C 5.449219 16 5 15.550781 5 15 Z M 7 6 L 7 14 L 17 14 L 17 6 Z M 9 9 C 9 8.449219 9.449219 8 10 8 L 14 8 C 14.550781 8 15 8.449219 15 9 C 15 9.550781 14.550781 10 14 10 L 10 10 C 9.449219 10 9 9.550781 9 9 Z M 9 12 C 9 11.449219 9.449219 11 10 11 L 14 11 C 14.550781 11 15 11.449219 15 12 C 15 12.550781 14.550781 13 14 13 L 10 13 C 9.449219 13 9 12.550781 9 12 Z M 9 12 "/>
</g>
</svg>
