<?xml version="1.0" encoding="UTF-8"?>
<svg xmlns="http://www.w3.org/2000/svg" xmlns:xlink="http://www.w3.org/1999/xlink" width="24px" height="px" viewBox="0 0 24 24" version="1.1">
  <g id="surface1">
    <path style="fill:none;stroke-width:1;stroke-linecap:butt;stroke-linejoin:miter;stroke:#000000;stroke-opacity:1;stroke-miterlimit:4;" d="M 16 32 L 48 32 L 48 56 L 16 56 Z M 16 32 " transform="matrix(0.375,0,0,0.375,0,0)"/>
    <path style="fill:none;stroke-width:1;stroke-linecap:butt;stroke-linejoin:miter;stroke:#000000;stroke-opacity:1;stroke-miterlimit:4;" d="M 24 48 L 40 48 " transform="matrix(0.375,0,0,0.375,0,0)"/>
    <path style="fill:none;stroke-width:1;stroke-linecap:butt;stroke-linejoin:miter;stroke:#000000;stroke-opacity:1;stroke-miterlimit:4;" d="M 24 40 L 40 40 " transform="matrix(0.375,0,0,0.375,0,0)"/>
    <path style="fill:none;stroke-width:1;stroke-linecap:butt;stroke-linejoin:miter;stroke:#000000;stroke-opacity:1;stroke-miterlimit:4;" d="M 20 16 L 20 8 L 44 8 L 44 16 " transform="matrix(0.375,0,0,0.375,0,0)"/>
    <path style="fill:none;stroke-width:1;stroke-linecap:butt;stroke-linejoin:miter;stroke:#000000;stroke-opacity:1;stroke-miterlimit:4;" d="M 16 40 L 8 40 L 8 16 L 56 16 L 56 40 L 48 40 " transform="matrix(0.375,0,0,0.375,0,0)"/>
  </g>
</svg>