<?xml version="1.0" encoding="UTF-8"?>
<svg xmlns="http://www.w3.org/2000/svg" xmlns:xlink="http://www.w3.org/1999/xlink" width="24px" height="24px" viewBox="0 0 24 24" version="1.1">
<g id="surface1">
<path style=" stroke:none;fill-rule:nonzero;fill:rgb(0,0,0);fill-opacity:1;" d="M 18 9 L 18 0 L 6 0 L 6 9 L 0 9 L 0 19.5 L 24 19.5 L 24 9 Z M 10.5 18 L 1.5 18 L 1.5 10.5 L 4.5 10.5 L 4.5 12 L 7.5 12 L 7.5 10.5 L 10.5 10.5 Z M 7.5 9 L 7.5 1.5 L 10.5 1.5 L 10.5 3 L 13.5 3 L 13.5 1.5 L 16.5 1.5 L 16.5 9 Z M 22.5 18 L 13.5 18 L 13.5 10.5 L 16.5 10.5 L 16.5 12 L 19.5 12 L 19.5 10.5 L 22.5 10.5 Z M 22.5 18 "/>
<path style=" stroke:none;fill-rule:nonzero;fill:rgb(26.666667%,26.666667%,26.666667%);fill-opacity:1;" d="M 0 24 L 4.5 24 L 4.5 22.5 L 19.5 22.5 L 19.5 24 L 24 24 L 24 21 L 0 21 Z M 0 24 "/>
</g>
</svg>
